<svg xmlns="http://www.w3.org/2000/svg" viewBox="0 0 520 580"><defs><linearGradient id="bg" x2="1" y2="1"><stop stop-color="#e9dff5"/><stop offset="1" stop-color="#f6ecf5"/></linearGradient><linearGradient id="cloth" x2="1" y2="1"><stop stop-color="#b29acf"/><stop offset="1" stop-color="#8c6ab5"/></linearGradient></defs><path fill="url(#bg)" d="M0 0h520v580H0z"/><path fill="#fcf9ff" d="M76 350V175a135 135 0 0 1 270 0v175z"/><path fill="none" stroke="#dfd1eb" stroke-width="2" d="M210 42v304M77 182h268"/><path fill="#e2d7eb" d="M0 422l520-59v217H0z"/><ellipse cx="285" cy="466" rx="205" ry="33" fill="#c2b59e" opacity=".35"/><path d="M62 459l303-29 106 48-318 32z" fill="#c2a7d6"/><path d="M63 459l90 45 318-27v7l-318 30-90-46z" fill="#9b79b7"/><path d="M388 404q-22-43-4-85 14 8 20 49 7-57 33-61 11 36-29 90 23-33 47-26-2 28-48 43" fill="#8a9675"/><path d="M382 400h41l-6 54h-29z" fill="#f2eade"/><path d="M227 333q30-21 55-4l39 91-30 18-53-62z" fill="url(#cloth)"/><path d="M287 417q-11 12 4 24l79 19q15 3 20-6l-70-38" fill="#8d6bad"/><path d="M372 449q23-1 35 8 4 9-10 11l-28-9" fill="#c4957b"/><path d="M251 360q-29 16-54 23l-63 57q-5 13 9 16l71-47 60-24" fill="#9675bc"/><path d="M143 441l-20 10q-20 7-22 17 2 9 19 2l27-17" fill="#c4957b"/><path d="M217 271q21-10 39 8l15 69q-24 24-52 6l-14-45z" fill="#f9eff7"/><path d="M216 283q-20 8-33 40l-41 20" fill="none" stroke="#c99b80" stroke-width="17" stroke-linecap="round"/><path d="M251 284q20 2 35-35l20-49" fill="none" stroke="#c99b80" stroke-width="17" stroke-linecap="round"/><path d="M306 203q8-14 7-25m-7 23-5-18" fill="none" stroke="#c99b80" stroke-width="6" stroke-linecap="round"/><path d="M145 342l-21 3" stroke="#c99b80" stroke-width="9" stroke-linecap="round"/><path d="M225 253l-2 25q10 10 20 0l-3-26" fill="#c39176"/><ellipse cx="232" cy="239" rx="23" ry="28" fill="#d0a387"/><path d="M209 247q-12-29 5-43 22-16 39 6l4 19q-16-5-30-19-1 17-18 23" fill="#807b6e"/><circle cx="207" cy="206" r="15" fill="#918b7a"/><path d="M218 201q15-4 25 6" fill="none" stroke="#b5ad98" stroke-width="3"/><path d="M234 249q6 4 11-1" fill="none" stroke="#976d58" stroke-width="1.5"/><path d="M232 237h2m12-1h2" stroke="#615f50" stroke-width="2"/><circle cx="92" cy="384" r="28" fill="#e7bdd8"/><path d="M24 404h50v23H24z" fill="#c4b6a0"/><path d="M29 393h47v12H29z" fill="#e9e0cd"/></svg>